<?xml version="1.0" encoding="UTF-8"?>
<svg id="Camada_2" data-name="Camada 2" xmlns="http://www.w3.org/2000/svg" viewBox="0 0 511 408.79">
  <defs>
    <style>
      .cls-1 {
        fill: #f24b0f;
      }
    </style>
  </defs>
  <g id="Camada_1-2" data-name="Camada 1">
    <g>
      <path class="cls-1" d="M511,153.28c0,102.08-146.03,138.53-146.03,138.53l48.58,84.14c-29.27,13.84-63.68,23.91-101.24,29.03l-104.74-181.42h118l22.67,39.27s66.54-26.48,60.13-77.61c-7.84-62.5-106.16-78.78-106.16-78.78L240.89.23s270.11-12.76,270.11,153.06Z"/>
      <path class="cls-1" d="M0,255.51C0,153.42,146.03,116.98,146.03,116.98l-48.58-84.14c29.27-13.84,63.68-23.91,101.24-29.03l104.74,181.42h-118l-22.67-39.27s-66.54,26.48-60.13,77.61c7.84,62.5,106.16,78.78,106.16,78.78l61.32,106.21S0,421.32,0,255.51Z"/>
    </g>
  </g>
</svg>