<?xml version="1.0" encoding="UTF-8"?>
<svg id="Camada_2" data-name="Camada 2" xmlns="http://www.w3.org/2000/svg" viewBox="0 0 267.62 269.15">
  <defs>
    <style>
      .cls-1 {
        fill: none;
        stroke: #2dce89;
        stroke-miterlimit: 10;
        stroke-width: 20px;
      }
    </style>
  </defs>
  <g id="Camada_1-2" data-name="Camada 1">
    <g>
      <path class="cls-1" d="M207.8,118.82v31.49c0,5.07-4.11,9.17-9.17,9.17h-23.18c-37.17,0-67.31,30.14-67.31,67.31v23.18c0,5.07-4.11,9.17-9.17,9.17h-31.49c-5.07,0-9.17-4.11-9.17-9.17v-32.36c0-2.8.09-5.56.32-8.3,1.4-18.23,7.33-35.23,16.7-49.83,8.45-13.15,19.66-24.37,32.82-32.82,14.61-9.35,31.59-15.3,49.83-16.7,2.74-.22,5.52-.32,8.3-.32h32.36c5.07,0,9.17,4.11,9.17,9.17Z"/>
      <path class="cls-1" d="M257.62,19.17v31.49c0,5.07-4.11,9.17-9.17,9.17H116.44c-26.8,0-49.41,18.23-56.12,42.94-1.1,4.04-4.68,6.89-8.87,6.89H19.19c-5.67,0-10.04-5.1-9.05-10.68,2.53-14.19,7.83-27.44,15.34-39.16,8.45-13.15,19.66-24.37,32.82-32.82,14.61-9.35,31.59-15.3,49.83-16.7,2.74-.22,5.52-.32,8.3-.32h132.01c5.07,0,9.17,4.11,9.17,9.17Z"/>
    </g>
  </g>
</svg>