<?xml version="1.0" encoding="UTF-8"?>
<svg id="Camada_2" data-name="Camada 2" xmlns="http://www.w3.org/2000/svg" viewBox="0 0 311.45 249.15">
  <defs>
    <style>
      .cls-1 {
        fill: #2dce89;
      }
    </style>
  </defs>
  <g id="Camada_1-2" data-name="Camada 1">
    <g>
      <path class="cls-1" d="M311.45,93.42c0,62.22-89,84.43-89,84.43l29.61,51.28c-17.84,8.43-38.81,14.57-61.7,17.69l-63.84-110.57h71.92l13.82,23.93s40.56-16.14,36.65-47.3c-4.78-38.09-64.71-48.01-64.71-48.01L146.82.14s164.62-7.78,164.62,93.29Z"/>
      <path class="cls-1" d="M0,155.73c0-62.22,89-84.43,89-84.43l-29.61-51.28c17.84-8.43,38.81-14.57,61.7-17.69l63.84,110.57h-71.92l-13.82-23.93s-40.56,16.14-36.65,47.3c4.78,38.09,64.71,48.01,64.71,48.01l37.38,64.74S0,256.79,0,155.73Z"/>
    </g>
  </g>
</svg>